<?xml version="1.0" encoding="UTF-8"?>
<svg id="Layer_2" data-name="Layer 2" xmlns="http://www.w3.org/2000/svg" xmlns:xlink="http://www.w3.org/1999/xlink" viewBox="0 0 1618.49 3065">
  <defs>
    <style>
      .cls-1 {
        fill: none;
        stroke: #726a6a;
        stroke-miterlimit: 10;
        stroke-width: 2px;
      }
    </style>
  </defs>
  <g id="Layer_1-2" data-name="Layer 1">
    <path class="cls-1" d="M0,1c313.37,0,653.36,122.61,720,243.63,57.42,104.27-67.09,218.08-66.64,334.23.4,103.23,147.85,197.84,155.59,311.18,8.12,119.03-135.81,149.84-142.44,282.37-6.73,134.57,138.68,162.85,142.44,305.42,3.97,150.8-156.82,190.92-144.84,334.23,10.86,129.82,147.33,151.13,144.84,270.84-2.49,119.48-139.42,144.54-145.02,265.08-4.38,94.3,75.33,167.1,182.6,265.08,75.05,68.55,196.64,163.33,374.07,240.25"/>
    <image width="3872" height="2581" transform="translate(871.84 2567.3) scale(.19)" xlink:href="../../../f2cf3f63-cfd5-4e0f-83f3-18546e379fac.png"/>
    <path class="cls-1" d="M29.57,1c313.37,0,653.36,122.61,720,243.63,57.42,104.27-67.09,218.08-66.64,334.23.4,103.23,147.85,197.84,155.59,311.18,8.12,119.03-135.81,149.84-142.44,282.37-6.73,134.57,138.68,162.85,142.44,305.42,3.97,150.8-156.82,190.92-144.84,334.23,10.86,129.82,147.33,151.13,144.84,270.84-2.49,119.48-139.42,144.54-145.02,265.08-4.38,94.3,75.33,167.1,182.6,265.08,75.05,68.55,173.16,150.09,350.6,227.02"/>
  </g>
</svg>